# xmcd
#
# Track frame offsets: 
#        150
#        11629
#        35470
#        47301
#        55248
#        70451
#        87477
#        108766
#        121251
#        126575
#        141587
#        168345
#        197336
#
# Disc length: 2764 seconds
#
# Revision: 0
# Processed by: cddbd v1.5.2PL0 Copyright (c) Steve Scherf et al.
# Submitted via: ExactAudioCopy v0.99pb5
#
DISCID=b40aca0d
DTITLE=Torklel Rasmusson Och Kjell Westling - Inte An
DYEAR=2010
DGENRE=Swedish progg
TTITLE0=Vindar Blaste
TTITLE1=Dag, Sedan Natt
TTITLE2=Akvarell
TTITLE3=Ordspraksboken I
TTITLE4=Over Den Smala Viken
TTITLE5=Hunden Gar In I Skuggan
TTITLE6=Inte An
TTITLE7=Kada
TTITLE8=Ordspraksboken II
TTITLE9=Slussens Sorg
TTITLE10=Renstiernas Gata 15-2
TTITLE11=Aventyr Pa Skansen
TTITLE12=Ordspraksboken III
EXTD=
EXTT0=
EXTT1=
EXTT2=
EXTT3=
EXTT4=
EXTT5=
EXTT6=
EXTT7=
EXTT8=
EXTT9=
EXTT10=
EXTT11=
EXTT12=
PLAYORDER=
